<svg width="500" height="500" viewBox="0 0 500 500" fill="none" xmlns="http://www.w3.org/2000/svg">
<path d="M467.504 203.092L466.879 201.428L405.636 35.4693C404.386 32.2252 402.158 29.4606 399.332 27.5988C393.49 23.8187 385.991 24.2418 380.584 28.6426C377.949 30.8429 376.074 33.8332 375.15 37.1901L333.796 168.563H166.341L124.987 37.1901C124.09 33.805 122.188 30.8147 119.553 28.6143C114.118 24.2136 106.646 23.7905 100.805 27.5706C97.9518 29.4324 95.7509 32.197 94.501 35.4411L33.1218 201.315L32.524 203.008C14.401 252.149 29.8069 307.779 70.2374 339.459L70.4547 339.628L71.0253 340.051L164.33 412.607L210.467 448.857L238.589 470.917C245.354 476.22 254.701 476.22 261.467 470.917L289.561 448.857L335.725 412.607L429.601 339.628L429.818 339.43C470.194 307.723 485.546 252.177 467.504 203.092Z" fill="#E24329"/>
<path d="M467.504 203.092L466.879 201.428C437.018 207.775 408.896 220.893 384.524 239.85L250.001 345.467C295.811 381.435 335.671 412.692 335.671 412.692L429.546 339.713L429.791 339.515C470.194 307.836 485.573 252.234 467.504 203.092Z" fill="#552583"/>
<path d="M164.33 412.692L210.467 448.969L238.589 471.001C245.354 476.333 254.701 476.333 261.467 471.001L289.562 448.969L335.725 412.692C335.725 412.692 295.811 381.35 250.001 345.467C204.19 381.35 164.33 412.692 164.33 412.692Z" fill="#F6AE2D"/>
<path d="M115.477 239.85C91.1047 220.865 62.9827 207.719 33.1218 201.315L32.524 203.008C14.401 252.149 29.8069 307.779 70.2374 339.459L70.4547 339.628L71.0253 340.051L164.33 412.607C164.33 412.607 204.136 381.35 250.001 345.355L115.477 239.85Z" fill="#552583"/>
</svg>
